:version 1.10
:name ASF
:units
  mass 1
  length 1
  angle deg
:documentation
  ASF file generated by Kaydara
:root
  axis xyz
  order  tx ty tz rx ry rz
  position 0 0 0
  orientation 0 0 0
:bonedata
  begin
    id 1
    name abdomenDummy
    direction 1 -1.27917e-005 -1.26829e-007
    length 1.79048
    axis 0 0 0 xyz
  end
  begin
    id 2
    name abdomen
    direction 0.987238 0.159249 -9.68575e-008
    length 8.61378
    axis 2.73208e-005 5.54953e-006 9.16328 xyz
    dof rx ry rz
  end
  begin
    id 3
    name chest
    direction 0 0 0
    length 0
    axis 2.65071e-005 8.63688e-006 2.59796 xyz
    dof rx ry rz
  end
  begin
    id 4
    name neckDummyDummy
    direction 0.998972 0.0453274 -1.50742e-007
    length 9.56202
    axis 2.65071e-005 8.63688e-006 2.59796 xyz
  end
  begin
    id 5
    name neckDummy
    direction 0.99977 0.0214525 -1.61748e-007
    length 1.93574
    axis 2.62932e-005 9.26758e-006 1.22924 xyz
    dof rx ry rz
  end
  begin
    id 6
    name neck
    direction 0.99928 -0.0379406 -1.88707e-007
    length 3.70367
    axis 2.56966e-005 1.08122e-005 -2.17436 xyz
    dof rx ry rz
  end
  begin
    id 7
    name head
    direction 0.992648 -0.121037 -2.25408e-007
    length 6.35158
    axis 2.47068e-005 1.29149e-005 -6.95196 xyz
    dof rx ry rz
  end
  begin
    id 8
    name figureHair
    direction -0.86681 -0.498639 -7.83376e-008
    length 8.29884
    axis -2.7515e-005 4.48842e-006 -150.09 xyz
    dof rx ry rz
  end
  begin
    id 9
    name lCollarDummy
    direction 0.994611 0.0451299 -0.0933417
    length 9.60395
    axis 2.65071e-005 8.63688e-006 2.59796 xyz
  end
  begin
    id 10
    name lCollar
    direction 0.0384146 0.00127577 -0.999261
    length 6.95318
    axis 90.4899 87.7973 1.90202 xyz
    dof rx ry rz
  end
  begin
    id 11
    name lShldr
    direction -0.030648 0.0920515 -0.995282
    length 9.61158
    axis -161.793 84.4324 108.415 xyz
    dof rx ry rz
  end
  begin
    id 12
    name lForeArm
    direction 0.000163956 -0.0977586 -0.99521
    length 8.6068
    axis 0.134773 84.3899 -89.8525 xyz
    dof rx ry rz
  end
  begin
    id 13
    name lHand
    direction -0.0190533 -0.1444 -0.989336
    length 7.61479
    axis -7.3729 81.6249 -97.517 xyz
    dof rx ry rz
  end
  begin
    id 14
    name rCollarDummy
    direction 0.994871 0.0442627 0.0909555
    length 9.60761
    axis 2.65071e-005 8.63688e-006 2.59796 xyz
  end
  begin
    id 15
    name rCollar
    direction 0.0334251 -4.74072e-007 0.999441
    length 6.97058
    axis -178.152 -88.0845 -0.000674207 xyz
    dof rx ry rz
  end
  begin
    id 16
    name rShldr
    direction -0.026922 0.0719509 0.997045
    length 9.60913
    axis 71.2822 -85.594 110.514 xyz
    dof rx ry rz
  end
  begin
    id 17
    name rForeArm
    direction 0.00134679 -0.118986 0.992895
    length 8.57176
    axis -88.7923 -83.1659 -89.3516 xyz
    dof rx ry rz
  end
  begin
    id 18
    name rHand
    direction -0.0185183 -0.0768601 0.99687
    length 7.69687
    axis -74.5596 -85.4655 -103.546 xyz
    dof rx ry rz
  end
  begin
    id 19
    name lThighDummy
    direction -0.236086 -0.0385456 -0.970967
    length 4.99155
    axis 0 0 0 xyz
  end
  begin
    id 20
    name lThigh
    direction -0.993968 0.0148998 -0.108653
    length 13.572
    axis -91.4001 6.23768 179.141 xyz
    dof rx ry rz
  end
  begin
    id 21
    name lShin
    direction -0.992341 0.0904576 -0.0841193
    length 18.5862
    axis -91.4558 4.82538 174.792 xyz
    dof rx ry rz
  end
  begin
    id 22
    name lFoot
    direction 0.0209381 -0.999771 -0.00453005
    length 8.44474
    axis 4.86759 0.259522 -88.8001 xyz
    dof rx ry rz
  end
  begin
    id 23
    name rThighDummy
    direction -0.236086 -0.0385456 0.970967
    length 4.99155
    axis 0 0 0 xyz
  end
  begin
    id 24
    name rThigh
    direction -0.993968 0.0148995 0.108653
    length 13.5721
    axis -89.7059 -6.2377 179.141 xyz
    dof rx ry rz
  end
  begin
    id 25
    name rShin
    direction -0.9925 0.0899962 0.0827255
    length 18.6716
    axis -89.2745 -4.74775 174.819 xyz
    dof rx ry rz
  end
  begin
    id 26
    name rFoot
    direction 0.0301721 -0.999545 9.70865e-005
    length 8.45013
    axis -2.50066e-005 -0.00555246 -88.271 xyz
    dof rx ry rz
  end
:hierarchy
  begin
    root abdomenDummy lThighDummy rThighDummy
    abdomenDummy abdomen
    abdomen chest
    chest neckDummyDummy lCollarDummy rCollarDummy
    neckDummyDummy neckDummy
    neckDummy neck
    neck head
    head figureHair
    lCollarDummy lCollar
    lCollar lShldr
    lShldr lForeArm
    lForeArm lHand
    rCollarDummy rCollar
    rCollar rShldr
    rShldr rForeArm
    rForeArm rHand
    lThighDummy lThigh
    lThigh lShin
    lShin lFoot
    rThighDummy rThigh
    rThigh rShin
    rShin rFoot
  end

:SAMPLES-PER-SECOND 25
:FULLY-SPECIFIED
:DEGREES
641
root  4.58192 37.0122 -1.86527 174.913 -0.568771 88.5719
abdomen  -5.43845 11.2809 -5.1075
chest  -8.50317 -16.837 -7.65966
neckDummy  9.09964e-021 0 8.72668e-016
neck  15.1732 7.49939 10.569
head  11.5956 -1.47238 -13.8288
figureHair  0 1.51661e-021 -9.5315e-016
lCollar  -5.15695e-016 -6.42944e-016 -7.59357e-014
lShldr  26.3297 -24.879 -51.5924
lForeArm  19.6996 -34.0343 0.0248473
lHand  0.254698 0.195082 5.2986
rCollar  1.7976e-016 -5.12864e-014 1.62755e-015
rShldr  -30.412 61.4994 -6.41045
rForeArm  15.9577 0.557921 53.445
rHand  0.169805 -10.1382 2.49435
lThigh  -8.13688 -2.98874 0.826952
lShin  -12.266 5.41746 -4.80647
lFoot  4.19522 -0.406203 -1.65792
rThigh  8.46871 -4.46327 -0.190626
rShin  2.92158 4.40851 2.94842
rFoot  -3.44209 -0.125619 -4.77562
642
root  4.41651 37.0215 -1.89604 174.781 -0.626923 89.4262
abdomen  -6.51924 13.7951 -6.25516
chest  -10.0581 -17.6762 -5.60119
neckDummy  9.09964e-021 0 8.72668e-016
neck  14.7354 4.63971 8.1932
head  12.2979 0.605908 -11.7941
figureHair  0 1.51661e-021 -9.5315e-016
lCollar  -5.15695e-016 -6.42944e-016 -7.59357e-014
lShldr  21.7565 -8.95788 -56.2401
lForeArm  23.6398 -40.1908 0.381312
lHand  0.254698 0.195082 5.2986
rCollar  1.7976e-016 -5.12864e-014 1.62755e-015
rShldr  -38.8849 60.9573 -30.471
rForeArm  19.1285 0.427858 60.0097
rHand  0.290367 -9.70274 1.22312
lThigh  -8.20433 -3.40938 0.968212
lShin  -12.3802 5.18677 -4.85322
lFoot  4.23248 -0.413511 -1.56043
rThigh  8.33983 -4.87314 -0.0471961
rShin  2.9706 4.07021 3.02915
rFoot  -3.43029 -0.119365 -4.71256
643
root  4.2405 37.0311 -1.92172 174.836 -0.690994 89.9846
abdomen  -8.08902 16.3506 -7.96896
chest  -12.0554 -18.257 -3.04879
neckDummy  9.09964e-021 0 8.72668e-016
neck  14.3999 0.691351 3.84756
head  13.4849 4.30571 -8.83271
figureHair  0 1.51661e-021 -9.5315e-016
lCollar  -5.15695e-016 -6.42944e-016 -7.59357e-014
lShldr  12.944 8.00295 -61.8975
lForeArm  25.4931 -46.6043 0.827949
lHand  0.254698 0.195082 5.2986
rCollar  1.7976e-016 -5.12864e-014 1.62755e-015
rShldr  -39.6198 57.1687 -46.4241
rForeArm  23.5101 0.263752 67.8658
rHand  0.442963 -8.95958 -0.592247
lThigh  -8.31613 -3.56805 1.13665
lShin  -12.2281 4.95506 -4.90719
lFoot  4.16458 -0.411614 -1.43129
rThigh  8.21446 -4.97177 0.101193
rShin  3.15108 3.75009 3.09222
rFoot  -3.41059 -0.11118 -4.62608
644
root  4.09849 37.0352 -1.92524 174.702 -0.774094 90.3034
abdomen  -9.6981 18.3837 -10.0955
chest  -13.9179 -18.2692 -0.176064
neckDummy  9.09964e-021 0 8.72668e-016
neck  14.351 -3.35625 -1.61318
head  14.9079 8.37953 -5.5815
figureHair  0 1.51661e-021 -9.5315e-016
lCollar  -5.15695e-016 -6.42944e-016 -7.59357e-014
lShldr  0.56685 23.3038 -69.6136
lForeArm  23.8909 -51.9542 1.28744
lHand  0.254698 0.195082 5.2986
rCollar  1.7976e-016 -5.12864e-014 1.62755e-015
rShldr  -31.6439 51.8117 -51.4776
rForeArm  27.2828 0.0769487 76.469
rHand  0.564931 -8.87333 -1.89875
lThigh  -8.4268 -3.52228 1.27136
lShin  -12.2064 4.83406 -4.95592
lFoot  4.12755 -0.412998 -1.29318
rThigh  8.10651 -4.98867 0.235681
rShin  3.14046 3.6213 3.09369
rFoot  -3.48862 -0.0977823 -4.56337
645
root  4.00695 37.035 -1.87495 173.952 -0.856705 90.5323
abdomen  -10.4672 19.2545 -11.6691
chest  -14.7407 -17.4731 2.59333
neckDummy  9.09964e-021 0 8.72668e-016
neck  14.3917 -5.86999 -7.46245
head  15.8944 10.8323 -2.09575
figureHair  0 1.51661e-021 -9.5315e-016
lCollar  -5.15695e-016 -6.42944e-016 -7.59357e-014
lShldr  -13.0335 34.4344 -78.7405
lForeArm  22.5699 -55.5946 1.66973
lHand  0.254698 0.195082 5.2986
rCollar  1.7976e-016 -5.12864e-014 1.62755e-015
rShldr  -19.0454 44.9578 -49.9493
rForeArm  29.2277 -0.132758 85.9569
rHand  0.677778 -10.2425 -2.1934
lThigh  -8.46961 -3.44321 1.29478
lShin  -12.9039 4.82599 -5.03552
lFoot  4.25583 -0.432744 -1.11254
rThigh  7.9835 -5.28129 0.333648
rShin  2.54833 3.68436 2.97224
rFoot  -3.5547 -0.101047 -4.64024
